HIERARCHY
ROOT Hips
{
  OFFSET -35.2597 29.1586 114.425
  CHANNELS 6 Xposition Yposition Zposition Zrotation Xrotation Yrotation
  JOINT LeftUpLeg
  {
    OFFSET 8.64259 1.95398 -2.38835
    CHANNELS 3 Zrotation Xrotation Yrotation
    JOINT LeftLeg
    {
      OFFSET 43.7702 0 0
      CHANNELS 3 Zrotation Xrotation Yrotation
      JOINT LeftFoot
      {
        OFFSET 40.6238 0 0
        CHANNELS 3 Zrotation Xrotation Yrotation
        JOINT LeftToeBase
        {
          OFFSET 12.7242 0 0
          CHANNELS 3 Zrotation Xrotation Yrotation
          End Site
          {
            OFFSET 0 0 0
          }
        }
      }
    }
  }
  JOINT RightUpLeg
  {
    OFFSET -8.2249 1.95398 -2.59336
    CHANNELS 3 Zrotation Xrotation Yrotation
    JOINT RightLeg
    {
      OFFSET 43.5653 0 0
      CHANNELS 3 Zrotation Xrotation Yrotation
      JOINT RightFoot
      {
        OFFSET 40.6238 0 0
        CHANNELS 3 Zrotation Xrotation Yrotation
        JOINT RightToeBase
        {
          OFFSET 12.7242 0 0
          CHANNELS 3 Zrotation Xrotation Yrotation
          End Site
          {
            OFFSET 0 0 0
          }
        }
      }
    }
  }
  JOINT Spine
  {
    OFFSET 0.165834 0.87714 6.61349
    CHANNELS 3 Zrotation Xrotation Yrotation
    JOINT Spine1
    {
      OFFSET 7.38963 1.71661e-005 0
      CHANNELS 3 Zrotation Xrotation Yrotation
      JOINT Spine2
      {
        OFFSET 11.9445 1.14441e-005 0
        CHANNELS 3 Zrotation Xrotation Yrotation
        JOINT Spine3
        {
          OFFSET 14.7254 4.19617e-005 0
          CHANNELS 3 Zrotation Xrotation Yrotation
          JOINT Spine4
          {
            OFFSET 10.9679 0 0
            CHANNELS 3 Zrotation Xrotation Yrotation
            JOINT RightShoulder
            {
              OFFSET 2.46616 -1.6653 3.69651
              CHANNELS 3 Zrotation Xrotation Yrotation
              JOINT RightArm
              {
                OFFSET 13.0012 0 0
                CHANNELS 3 Zrotation Xrotation Yrotation
                JOINT RightForeArm
                {
                  OFFSET 28.7848 1.62311e-005 0
                  CHANNELS 3 Zrotation Xrotation Yrotation
                  JOINT RightHand
                  {
                    OFFSET 26.5688 1.62095e-005 0
                    CHANNELS 3 Zrotation Xrotation Yrotation
                    End Site
                    {
                      OFFSET 0 0 0
                    }
                  }
                }
              }
            }
            JOINT LeftShoulder
            {
              OFFSET 2.38034 -1.29275 -3.7523
              CHANNELS 3 Zrotation Xrotation Yrotation
              JOINT LeftArm
              {
                OFFSET 16.3182 6.07031e-005 0
                CHANNELS 3 Zrotation Xrotation Yrotation
                JOINT LeftForeArm
                {
                  OFFSET 27.0901 0 0
                  CHANNELS 3 Zrotation Xrotation Yrotation
                  JOINT LeftHand
                  {
                    OFFSET 24.5451 1.51738e-005 0
                    CHANNELS 3 Zrotation Xrotation Yrotation
                    End Site
                    {
                      OFFSET 0 0 0
                    }
                  }
                }
              }
            }
            JOINT Neck
            {
              OFFSET 5.0226 -0.0266342 0
              CHANNELS 3 Zrotation Xrotation Yrotation
              JOINT Head
              {
                OFFSET 6.69364 2.86102e-005 0
                CHANNELS 3 Zrotation Xrotation Yrotation
                End Site
                {
                  OFFSET 0 0 0
                }
              }
            }
          }
        }
      }
    }
  }
}
MOTION
Frames:	7
Frame Time:	0.0416667
-313.521 83.0251 321.521 69.703 46.7036 96.8216 -165.035 50.9639 74.2851 -54.4274 11.3491 -6.64455 77.3795 10.8193 0.336352 16.9378 -5.69593 -0.734098 172.56 -7.38471 85.2298 -37.7331 -15.5504 -3.86413 56.6411 2.02718 -0.426105 76.4983 -16.551 12.8725 2.28766 8.14245 -88.6381 10.539 5.18198 2.24326 -1.12313 5.27567 2.01254 -23.7034 4.26835 3.69837 -3.69077 4.26837 3.69837 91.7177 -22.255 -106.265 35.1196 5.41921 -34.8878 -4.26723 -22.9164 -4.98464 -27.4011 5.74791 -29.0158 -87.2629 -44.7407 81.8929 -17.1117 -16.9539 17.4762 24.9768 45.6651 -32.9801 9.58574 -1.31308 -16.0034 39.2269 -9.2635 -2.71011 -9.42595 -7.36543 -0.996644 
-306.095 82.2596 314.023 72.5973 50.8563 94.3522 -167.388 42.5279 74.7103 -58.9525 12.1948 -4.97082 85.1682 16.8431 0.630176 26.0119 -1.28782 -0.168569 173.085 -0.148734 85.1152 -60.2615 -18.5218 -3.90225 59.608 0.254352 -2.12262 81.2787 -19.115 6.90456 1.69122 8.44952 -88.5327 9.92489 4.03696 2.5842 -1.74201 4.14676 2.40387 -24.2888 3.07414 3.67786 -4.27617 3.07414 3.67786 89.2973 -27.4787 -109.208 37.6418 5.86948 -24.7462 -4.67463 -31.5845 -5.13292 -24.894 5.47212 -30.2569 -87.4118 -50.2879 82.659 -20.9612 -14.7944 -13.9603 1.73344 51.3469 -2.06109 18.4938 -4.0086 -25.6015 39.2162 -10.3831 -5.87384 -6.68498 -6.94453 -0.754927 
-298.881 82.2522 306.186 73.7005 53.5089 92.6242 -169.85 32.2978 75.8464 -57.856 8.65232 -3.92009 95.0805 21.3703 -6.06092 29.3539 -0.145767 0.904106 174.959 16.2829 87.0914 -82.113 -9.43201 -4.19103 67.7943 -6.07855 -5.63777 72.9005 -17.3283 1.11604 1.25071 8.63579 -88.3497 9.549 3.23754 3.02425 -2.12107 3.36744 2.87885 -24.6452 2.17969 3.8567 -4.63257 2.17969 3.8567 88.6719 -31.5852 -108.727 42.5708 6.68896 -9.72364 -4.87497 -35.1934 -5.2218 -25.0286 5.03046 -28.256 -88.4266 -54.8198 81.9544 -26.2393 -8.91308 -24.5877 29.0969 55.9191 -34.2771 22.2828 -3.68 -19.953 37.5985 -10.7784 -8.121 -4.50733 -6.3584 -1.49186 
-291.735 82.4283 298.543 76.4442 53.7559 93.1282 -171.354 20.3669 81.3352 -53.3914 8.14056 -2.62169 103.22 24.661 -11.8622 31.6113 -0.480415 4.09714 179.663 32.8611 88.5241 -94.1778 -0.774634 -4.56621 74.1885 -11.0364 -6.99741 56.3203 -11.0246 -0.68721 0.820708 8.70399 -88.6226 9.42971 2.256 2.55739 -2.24148 2.36633 2.45566 -24.7642 1.38351 3.11675 -4.75153 1.38351 3.11675 90.0224 -32.5 -105.792 46.3991 9.41461 7.15551 -5.31843 -42.2775 -5.46017 -27.6323 5.52577 -27.915 -88.5586 -52.0835 81.2768 -28.4822 2.15285 -22.5888 58.0261 33.281 -71.9582 11.2884 -1.08643 -13.7946 33.7578 -9.01256 -9.83988 -2.01843 -4.29681 -2.22999 
-284.315 82.8622 291.08 74.727 57.5096 100.268 -172.543 10.3493 89.3331 -45.1265 11.0146 -0.141553 106.716 28.6695 -11.8208 31.2033 -1.66702 6.13532 178.025 48.6055 92.7355 -91.9229 1.74494 -3.57907 80.3708 -13.7591 -5.97352 32.741 -2.56259 3.58701 -0.44167 8.42989 -89.4345 10.016 -0.622911 1.17383 -1.65532 -0.570663 1.2001 -24.1888 -0.946903 0.932377 -4.1761 -0.94689 0.932382 91.5035 -29.39 -103.976 45.7089 13.2805 22.4883 -5.8794 -49.4976 -5.8253 -30.6187 6.89654 -30.5356 -87.4788 -43.7209 81.3495 -25.9012 5.43918 -34.0347 55.8865 27.1871 -73.6164 18.8116 -4.19338 -26.0583 30.7596 -5.41194 -11.4737 -3.37091 -0.498921 0.193909 
-275.458 85.5484 280.877 75.8597 55.7948 103.503 -171.424 -1.53364 96.1348 -31.3298 18.6619 1.10989 85.4426 21.7169 1.84812 46.5642 6.25798 6.51295 178.486 54.4544 94.4075 -74.5678 -0.367539 -2.46492 80.7125 -12.2348 -3.35753 16.7394 2.71282 6.08292 -1.44407 8.07821 -90.1339 10.7208 -2.93749 0.00245793 -0.94671 -2.93454 0.131851 -23.5075 -2.80231 -0.881214 -3.49484 -2.80231 -0.88121 91.6911 -25.7852 -104.897 38.135 16.2225 34.1486 -6.22704 -53.1481 -6.07689 -32.0398 9.16243 -36.9993 -85.6366 -35.9129 82.9537 -24.6905 2.90003 -38.8389 51.6573 26.9042 -70.9718 28.7272 -9.7426 -38.5718 28.2254 0.760227 -10.7525 -7.90521 4.77517 1.80394 
-264.606 89.071 268.423 79.4319 49.9521 105.093 -171.028 -12.6593 97.1069 -25.1582 20.4478 3.38825 59.1042 1.07018 4.79304 41.0359 7.47522 -3.03111 179.812 49.4728 98.4423 -49.2446 -5.33458 -0.832367 75.262 -8.72812 -0.687325 21.6219 0.72434 6.41052 -1.71575 7.93496 -90.9579 10.9853 -3.85957 -1.5408 -0.680593 -3.92363 -1.36924 -23.2434 -3.21804 -2.63021 -3.23074 -3.21803 -2.63021 91.1795 -22.9761 -107.161 32.1991 17.0042 39.0084 -6.35431 -54.3508 -6.17777 -33.9926 10.6939 -39.9071 -84.6354 -31.9473 84.027 -23.5563 1.20455 -27.8907 53.5784 17.9164 -78.0848 24.0101 -9.63545 -43.6326 28.6992 6.2579 -7.79739 -14.4453 8.71213 2.72126 
